<svg xmlns="http://www.w3.org/2000/svg" xmlns:xlink="http://www.w3.org/1999/xlink" width="40" zoomAndPan="magnify" viewBox="0 0 30 30.000001" height="40" preserveAspectRatio="xMidYMid meet" version="1.0"><defs><clipPath id="6a8535c102"><path d="M 0.625 0 L 29.515625 0 L 29.515625 6 L 0.625 6 Z M 0.625 0 " clip-rule="nonzero"/></clipPath><clipPath id="a5328889ce"><path d="M 0.625 10 L 29.515625 10 L 29.515625 16 L 0.625 16 Z M 0.625 10 " clip-rule="nonzero"/></clipPath><clipPath id="48d8b5f0e9"><path d="M 0.625 20 L 29.515625 20 L 29.515625 26.128906 L 0.625 26.128906 Z M 0.625 20 " clip-rule="nonzero"/></clipPath></defs><g clip-path="url(#6a8535c102)"><path fill="#ffffff" d="M 3.238281 5.226562 L 26.757812 5.226562 C 27.101562 5.226562 27.4375 5.160156 27.757812 5.027344 C 28.074219 4.894531 28.359375 4.707031 28.605469 4.460938 C 28.847656 4.214844 29.039062 3.933594 29.171875 3.613281 C 29.300781 3.292969 29.367188 2.960938 29.367188 2.613281 C 29.367188 2.265625 29.300781 1.933594 29.171875 1.613281 C 29.039062 1.292969 28.847656 1.011719 28.605469 0.765625 C 28.359375 0.519531 28.074219 0.332031 27.757812 0.199219 C 27.4375 0.0664062 27.101562 0 26.757812 0 L 3.238281 0 C 2.894531 0 2.558594 0.0664062 2.238281 0.199219 C 1.917969 0.332031 1.636719 0.519531 1.390625 0.765625 C 1.148438 1.011719 0.957031 1.292969 0.824219 1.613281 C 0.691406 1.933594 0.628906 2.265625 0.628906 2.613281 C 0.628906 2.960938 0.691406 3.292969 0.824219 3.613281 C 0.957031 3.933594 1.148438 4.214844 1.390625 4.460938 C 1.636719 4.707031 1.917969 4.894531 2.238281 5.027344 C 2.558594 5.160156 2.894531 5.226562 3.238281 5.226562 Z M 3.238281 5.226562 " fill-opacity="1" fill-rule="nonzero"/></g><g clip-path="url(#a5328889ce)"><path fill="#ffffff" d="M 26.757812 10.453125 L 3.238281 10.453125 C 2.894531 10.453125 2.558594 10.519531 2.238281 10.652344 C 1.917969 10.78125 1.636719 10.972656 1.390625 11.21875 C 1.148438 11.460938 0.957031 11.746094 0.824219 12.066406 C 0.691406 12.382812 0.628906 12.71875 0.628906 13.066406 C 0.628906 13.410156 0.691406 13.746094 0.824219 14.0625 C 0.957031 14.382812 1.148438 14.667969 1.390625 14.914062 C 1.636719 15.15625 1.917969 15.347656 2.238281 15.480469 C 2.558594 15.609375 2.894531 15.675781 3.238281 15.675781 L 26.757812 15.675781 C 27.101562 15.675781 27.4375 15.609375 27.757812 15.480469 C 28.074219 15.347656 28.359375 15.15625 28.605469 14.914062 C 28.847656 14.667969 29.039062 14.382812 29.171875 14.0625 C 29.300781 13.746094 29.367188 13.410156 29.367188 13.066406 C 29.367188 12.71875 29.300781 12.382812 29.171875 12.066406 C 29.039062 11.746094 28.847656 11.460938 28.605469 11.21875 C 28.359375 10.972656 28.074219 10.78125 27.757812 10.652344 C 27.4375 10.519531 27.101562 10.453125 26.757812 10.453125 Z M 26.757812 10.453125 " fill-opacity="1" fill-rule="nonzero"/></g><g clip-path="url(#48d8b5f0e9)"><path fill="#ffffff" d="M 26.757812 20.902344 L 3.238281 20.902344 C 2.894531 20.902344 2.558594 20.96875 2.238281 21.101562 C 1.917969 21.234375 1.636719 21.421875 1.390625 21.667969 C 1.148438 21.914062 0.957031 22.195312 0.824219 22.515625 C 0.691406 22.835938 0.628906 23.167969 0.628906 23.515625 C 0.628906 23.863281 0.691406 24.195312 0.824219 24.515625 C 0.957031 24.835938 1.148438 25.117188 1.390625 25.363281 C 1.636719 25.609375 1.917969 25.796875 2.238281 25.929688 C 2.558594 26.0625 2.894531 26.128906 3.238281 26.128906 L 26.757812 26.128906 C 27.101562 26.128906 27.4375 26.0625 27.757812 25.929688 C 28.074219 25.796875 28.359375 25.609375 28.605469 25.363281 C 28.847656 25.117188 29.039062 24.835938 29.171875 24.515625 C 29.300781 24.195312 29.367188 23.863281 29.367188 23.515625 C 29.367188 23.167969 29.300781 22.835938 29.171875 22.515625 C 29.039062 22.195312 28.847656 21.914062 28.605469 21.667969 C 28.359375 21.421875 28.074219 21.234375 27.757812 21.101562 C 27.4375 20.96875 27.101562 20.902344 26.757812 20.902344 Z M 26.757812 20.902344 " fill-opacity="1" fill-rule="nonzero"/></g></svg>