<svg xmlns="http://www.w3.org/2000/svg" xmlns:xlink="http://www.w3.org/1999/xlink" width="40" zoomAndPan="magnify" viewBox="0 0 30 30.000001" height="40" preserveAspectRatio="xMidYMid meet" version="1.0"><defs><clipPath id="8ed0fd2c24"><path d="M 0.921875 0.4375 L 29.230469 0.4375 L 29.230469 28.746094 L 0.921875 28.746094 Z M 0.921875 0.4375 " clip-rule="nonzero"/></clipPath></defs><g clip-path="url(#8ed0fd2c24)"><path fill="#ffffff" d="M 14.996094 0.4375 C 7.222656 0.4375 0.921875 6.738281 0.921875 14.511719 C 0.921875 22.285156 7.222656 28.585938 14.996094 28.585938 C 22.769531 28.585938 29.070312 22.285156 29.070312 14.511719 C 29.070312 6.738281 22.769531 0.4375 14.996094 0.4375 Z M 14.996094 27.519531 C 7.8125 27.519531 1.988281 21.695312 1.988281 14.511719 C 1.988281 7.328125 7.8125 1.503906 14.996094 1.503906 C 22.179688 1.503906 28.003906 7.328125 28.003906 14.511719 C 28.003906 21.695312 22.179688 27.519531 14.996094 27.519531 Z M 14.996094 27.519531 " fill-opacity="1" fill-rule="nonzero"/></g><path fill="#ffffff" d="M 13.34375 21.410156 C 12.992188 21.445312 12.710938 21.484375 12.425781 21.496094 C 10.820312 21.574219 9.632812 20.941406 8.910156 19.464844 C 8.679688 18.992188 8.386719 18.550781 8.082031 18.125 C 7.898438 17.867188 7.640625 17.664062 7.402344 17.449219 L 7.398438 17.445312 C 7.25 17.316406 7.316406 17.074219 7.511719 17.042969 C 7.738281 17.003906 7.949219 17.046875 8.15625 17.097656 C 8.800781 17.261719 9.214844 17.71875 9.542969 18.269531 C 10.292969 19.507812 11.578125 20.023438 12.96875 19.652344 C 13.203125 19.589844 13.308594 19.488281 13.359375 19.230469 C 13.417969 18.929688 13.5 18.636719 13.589844 18.332031 C 13.644531 18.144531 13.621094 17.96875 13.523438 17.800781 C 13.425781 17.628906 13.28125 17.523438 13.089844 17.480469 L 13.082031 17.476562 C 11.640625 17.132812 10.394531 16.488281 9.589844 15.171875 C 9.160156 14.464844 8.949219 13.6875 8.957031 12.878906 C 8.972656 11.960938 9.050781 11.042969 9.15625 10.128906 C 9.230469 9.484375 9.53125 8.917969 9.992188 8.453125 C 10.152344 8.292969 10.167969 8.15625 10.089844 7.949219 C 9.769531 7.09375 9.824219 6.238281 10.109375 5.382812 C 10.1875 5.140625 10.300781 5.105469 10.53125 5.179688 C 11.246094 5.40625 11.78125 5.871094 12.25 6.425781 L 12.253906 6.433594 C 12.375 6.578125 12.523438 6.675781 12.707031 6.730469 C 12.886719 6.78125 13.066406 6.777344 13.246094 6.71875 C 14.730469 6.234375 16.980469 6.226562 18.378906 6.707031 C 18.558594 6.769531 18.742188 6.773438 18.925781 6.722656 C 19.109375 6.671875 19.261719 6.574219 19.382812 6.425781 L 19.386719 6.421875 C 19.855469 5.863281 20.390625 5.402344 21.105469 5.175781 C 21.347656 5.101562 21.449219 5.160156 21.523438 5.390625 C 21.800781 6.25 21.851562 7.097656 21.546875 7.960938 C 21.507812 8.082031 21.507812 8.296875 21.582031 8.371094 C 22.222656 9.023438 22.503906 9.828125 22.574219 10.703125 C 22.644531 11.546875 22.71875 12.40625 22.640625 13.246094 C 22.4375 15.425781 21.109375 16.695312 19.09375 17.328125 C 18.921875 17.378906 18.746094 17.425781 18.566406 17.46875 C 18.371094 17.515625 18.222656 17.625 18.125 17.804688 C 18.027344 17.980469 18.011719 18.164062 18.078125 18.355469 C 18.355469 19.152344 18.3125 20.003906 18.308594 20.847656 C 18.308594 21.042969 18.304688 21.238281 18.304688 21.429688 C 18.304688 21.757812 18.242188 22.070312 18.117188 22.367188 C 17.992188 22.667969 17.816406 22.933594 17.585938 23.164062 C 17.355469 23.390625 17.089844 23.570312 16.789062 23.691406 C 16.488281 23.816406 16.175781 23.878906 15.851562 23.878906 L 15.796875 23.878906 C 15.472656 23.878906 15.160156 23.816406 14.859375 23.691406 C 14.558594 23.566406 14.292969 23.390625 14.0625 23.160156 C 13.832031 22.929688 13.65625 22.664062 13.53125 22.363281 C 13.40625 22.0625 13.34375 21.75 13.34375 21.425781 Z M 13.34375 21.410156 " fill-opacity="1" fill-rule="nonzero"/></svg>