<svg xmlns="http://www.w3.org/2000/svg" xmlns:xlink="http://www.w3.org/1999/xlink" width="40" zoomAndPan="magnify" viewBox="0 0 30 30.000001" height="40" preserveAspectRatio="xMidYMid meet" version="1.0"><defs><clipPath id="48bd315cb7"><path d="M 0.554688 0 L 29.515625 0 L 29.515625 29 L 0.554688 29 Z M 0.554688 0 " clip-rule="nonzero"/></clipPath></defs><g clip-path="url(#48bd315cb7)"><path fill="#ffffff" d="M 15.0625 0.0273438 C 7 0.0546875 0.554688 6.59375 0.660156 14.632812 C 0.679688 16.261719 0.96875 17.84375 1.53125 19.375 C 2.089844 20.90625 2.886719 22.304688 3.925781 23.5625 C 4.089844 23.765625 4.183594 24 4.207031 24.261719 C 4.230469 24.519531 4.179688 24.765625 4.050781 24.996094 L 2.804688 27.21875 C 2.460938 27.835938 3.023438 28.566406 3.707031 28.390625 L 7.925781 27.320312 C 8.230469 27.242188 8.519531 27.273438 8.804688 27.410156 C 10.691406 28.324219 12.683594 28.804688 14.777344 28.847656 C 22.886719 29.03125 29.539062 22.570312 29.5625 14.484375 C 29.589844 6.488281 23.082031 0 15.0625 0.0273438 Z M 15.113281 27.078125 C 14.28125 27.078125 13.457031 26.996094 12.640625 26.832031 C 11.824219 26.671875 11.03125 26.433594 10.261719 26.113281 C 9.496094 25.796875 8.765625 25.40625 8.074219 24.945312 C 7.378906 24.484375 6.742188 23.960938 6.152344 23.375 C 5.5625 22.789062 5.039062 22.148438 4.578125 21.460938 C 4.113281 20.769531 3.722656 20.042969 3.40625 19.277344 C 3.085938 18.507812 2.847656 17.71875 2.683594 16.90625 C 2.523438 16.089844 2.441406 15.269531 2.441406 14.441406 C 2.441406 7.460938 8.113281 1.804688 15.113281 1.804688 C 22.082031 1.804688 27.738281 7.417969 27.78125 14.359375 C 27.828125 21.324219 22.097656 27.078125 15.113281 27.078125 Z M 15.113281 27.078125 " fill-opacity="1" fill-rule="nonzero"/></g><path fill="#ffffff" d="M 12.847656 8.296875 L 12.851562 8.308594 L 13.609375 9.804688 C 13.777344 10.136719 13.828125 10.484375 13.761719 10.851562 C 13.695312 11.21875 13.527344 11.527344 13.253906 11.78125 C 12.980469 12.03125 12.8125 12.339844 12.746094 12.703125 C 12.679688 13.070312 12.726562 13.417969 12.894531 13.75 C 13.347656 14.65625 14.132812 15.910156 15.332031 16.8125 C 15.605469 17.019531 15.917969 17.132812 16.261719 17.152344 C 16.605469 17.167969 16.925781 17.089844 17.222656 16.910156 L 17.710938 16.617188 C 18.175781 16.332031 18.664062 16.285156 19.175781 16.480469 L 21.113281 17.214844 C 21.320312 17.292969 21.503906 17.410156 21.667969 17.5625 C 21.828125 17.714844 21.957031 17.890625 22.046875 18.09375 C 22.136719 18.296875 22.1875 18.507812 22.191406 18.730469 C 22.199219 18.953125 22.164062 19.167969 22.085938 19.375 C 22.0625 19.433594 22.035156 19.488281 22.007812 19.546875 L 21.472656 20.582031 C 21.289062 20.929688 21.023438 21.183594 20.664062 21.34375 C 20.304688 21.503906 19.9375 21.53125 19.554688 21.433594 C 16.519531 20.652344 9.277344 17.925781 8.695312 9.6875 C 8.667969 9.351562 8.738281 9.039062 8.90625 8.746094 C 9.070312 8.453125 9.300781 8.230469 9.601562 8.078125 L 10.585938 7.574219 C 10.785156 7.472656 10.996094 7.410156 11.214844 7.394531 C 11.4375 7.375 11.65625 7.398438 11.867188 7.46875 C 12.078125 7.535156 12.269531 7.640625 12.441406 7.785156 C 12.609375 7.929688 12.746094 8.097656 12.847656 8.296875 Z M 12.847656 8.296875 " fill-opacity="1" fill-rule="nonzero"/></svg>