<svg xmlns="http://www.w3.org/2000/svg" xmlns:xlink="http://www.w3.org/1999/xlink" width="40" zoomAndPan="magnify" viewBox="0 0 30 30.000001" height="40" preserveAspectRatio="xMidYMid meet" version="1.0"><defs><clipPath id="58c58c151b"><path d="M 1.390625 0.90625 L 28.972656 0.90625 L 28.972656 28.488281 L 1.390625 28.488281 Z M 1.390625 0.90625 " clip-rule="nonzero"/></clipPath></defs><g clip-path="url(#58c58c151b)"><path fill="#ffffff" d="M 6.222656 0.90625 L 23.761719 0.90625 C 25.101562 0.90625 26.3125 1.449219 27.191406 2.328125 C 28.066406 3.203125 28.609375 4.414062 28.609375 5.738281 L 28.609375 23.277344 C 28.609375 24.617188 28.066406 25.828125 27.191406 26.707031 C 26.3125 27.582031 25.101562 28.125 23.761719 28.125 L 6.222656 28.125 C 4.898438 28.125 3.6875 27.582031 2.808594 26.707031 C 1.933594 25.828125 1.390625 24.617188 1.390625 23.277344 L 1.390625 5.738281 C 1.390625 4.414062 1.933594 3.203125 2.808594 2.328125 C 3.6875 1.449219 4.898438 0.90625 6.222656 0.90625 Z M 23.761719 2.328125 L 6.222656 2.328125 C 5.28125 2.328125 4.4375 2.710938 3.816406 3.332031 C 3.191406 3.953125 2.808594 4.796875 2.808594 5.738281 L 2.808594 23.277344 C 2.808594 24.21875 3.191406 25.078125 3.816406 25.703125 C 4.4375 26.308594 5.28125 26.707031 6.222656 26.707031 L 23.761719 26.707031 C 24.703125 26.707031 25.5625 26.308594 26.183594 25.703125 C 26.792969 25.078125 27.191406 24.21875 27.191406 23.277344 L 27.191406 5.738281 C 27.191406 4.796875 26.792969 3.953125 26.183594 3.332031 C 25.5625 2.710938 24.703125 2.328125 23.761719 2.328125 Z M 23.761719 2.328125 " fill-opacity="1" fill-rule="nonzero"/></g><path fill="#ffffff" d="M 6.367188 10.347656 L 8.996094 10.347656 C 9.300781 10.347656 9.570312 10.457031 9.761719 10.648438 C 9.96875 10.839844 10.113281 11.113281 10.113281 11.429688 L 10.113281 23.628906 C 10.113281 23.929688 9.96875 24.21875 9.761719 24.410156 C 9.570312 24.601562 9.300781 24.710938 8.996094 24.710938 L 6.367188 24.710938 C 6.0625 24.710938 5.792969 24.601562 5.601562 24.410156 C 5.378906 24.21875 5.25 23.929688 5.25 23.628906 L 5.25 11.429688 C 5.25 11.113281 5.378906 10.839844 5.601562 10.648438 C 5.792969 10.457031 6.0625 10.347656 6.367188 10.347656 Z M 8.695312 11.765625 L 6.667969 11.765625 L 6.667969 23.292969 L 8.695312 23.292969 Z M 8.695312 11.765625 " fill-opacity="1" fill-rule="nonzero"/><path fill="#ffffff" d="M 13.015625 10.316406 L 15.644531 10.316406 C 15.949219 10.316406 16.21875 10.441406 16.410156 10.617188 C 16.632812 10.824219 16.761719 11.097656 16.761719 11.398438 L 16.761719 11.496094 C 17.335938 11.113281 17.988281 10.824219 18.660156 10.664062 C 19.585938 10.441406 20.558594 10.425781 21.449219 10.632812 C 22.359375 10.855469 23.203125 11.335938 23.792969 12.085938 C 24.382812 12.800781 24.734375 13.773438 24.734375 14.988281 L 24.734375 23.597656 C 24.734375 23.898438 24.605469 24.171875 24.398438 24.378906 C 24.207031 24.554688 23.9375 24.679688 23.632812 24.679688 L 20.988281 24.679688 C 20.699219 24.679688 20.429688 24.554688 20.222656 24.378906 C 20.015625 24.171875 19.886719 23.898438 19.886719 23.597656 L 19.886719 16.789062 C 19.886719 16.152344 19.519531 15.75 19.058594 15.578125 C 18.851562 15.496094 18.613281 15.464844 18.386719 15.464844 C 18.148438 15.464844 17.910156 15.511719 17.6875 15.59375 C 17.160156 15.785156 16.761719 16.183594 16.761719 16.789062 L 16.761719 23.628906 C 16.761719 23.929688 16.632812 24.21875 16.410156 24.410156 C 16.21875 24.601562 15.949219 24.710938 15.644531 24.710938 L 13.015625 24.710938 C 12.710938 24.710938 12.441406 24.601562 12.25 24.410156 C 12.042969 24.21875 11.898438 23.929688 11.898438 23.628906 L 11.898438 11.398438 C 11.898438 11.097656 12.042969 10.824219 12.25 10.617188 C 12.441406 10.441406 12.710938 10.316406 13.015625 10.316406 Z M 15.34375 11.734375 L 13.316406 11.734375 L 13.316406 23.292969 L 15.34375 23.292969 L 15.34375 16.789062 C 15.34375 15.496094 16.15625 14.636719 17.207031 14.253906 C 17.574219 14.125 17.972656 14.0625 18.371094 14.046875 C 18.769531 14.046875 19.167969 14.109375 19.550781 14.253906 C 20.539062 14.621094 21.304688 15.449219 21.304688 16.789062 L 21.304688 23.261719 L 23.316406 23.261719 L 23.316406 14.988281 C 23.316406 14.125 23.074219 13.457031 22.691406 12.976562 C 22.292969 12.484375 21.738281 12.164062 21.113281 12.003906 C 20.445312 11.84375 19.710938 11.859375 19.011719 12.035156 C 18.054688 12.277344 17.191406 12.785156 16.632812 13.550781 C 16.507812 13.742188 16.300781 13.855469 16.042969 13.855469 C 15.660156 13.855469 15.34375 13.535156 15.34375 13.152344 Z M 15.34375 11.734375 " fill-opacity="1" fill-rule="nonzero"/><path fill="#ffffff" d="M 7.671875 4.304688 C 8.390625 4.304688 9.042969 4.605469 9.507812 5.070312 C 9.96875 5.53125 10.257812 6.183594 10.257812 6.886719 C 10.257812 7.605469 9.96875 8.242188 9.507812 8.71875 C 9.042969 9.183594 8.390625 9.46875 7.671875 9.46875 C 6.972656 9.46875 6.316406 9.183594 5.855469 8.71875 C 5.394531 8.242188 5.105469 7.605469 5.105469 6.886719 C 5.105469 6.183594 5.394531 5.53125 5.855469 5.070312 C 6.316406 4.605469 6.972656 4.304688 7.671875 4.304688 Z M 8.503906 6.074219 C 8.296875 5.867188 8.007812 5.738281 7.671875 5.738281 C 7.355469 5.738281 7.066406 5.867188 6.859375 6.074219 C 6.652344 6.28125 6.523438 6.566406 6.523438 6.886719 C 6.523438 7.207031 6.652344 7.507812 6.859375 7.714844 C 7.066406 7.921875 7.355469 8.050781 7.671875 8.050781 C 8.007812 8.050781 8.296875 7.921875 8.503906 7.714844 C 8.710938 7.507812 8.835938 7.207031 8.835938 6.886719 C 8.835938 6.566406 8.710938 6.28125 8.503906 6.074219 Z M 8.503906 6.074219 " fill-opacity="1" fill-rule="nonzero"/></svg>